<?xml version="1.0" encoding="utf-8"?>
<svg viewBox="0 0 512 512" width="512" height="512" xmlns="http://www.w3.org/2000/svg">
  <rect class="st0" width="512" height="512" style="fill: rgb(255, 255, 255);"/>
  <g style="" transform="matrix(6.08856, 0, 0, 5.722229, -163.634598, -134.644638)">
    <path class="st1" d="M45.2,59.4c0.9,0.6,2.2,1.1,4,1.7c1.8,0.6,3.8,0.9,6.2,0.9c2.5,0,4.3-0.5,5.5-1.5c1.2-1,1.8-2.4,1.8-4.1 c0-0.6-0.1-1.2-0.2-1.8c-0.2-0.6-0.5-1.1-0.9-1.6c-0.4-0.5-1-1-1.8-1.4c-0.8-0.4-1.7-0.8-2.9-1.1l-4.1-1.2 c-2.7-0.7-4.8-1.9-6.5-3.4c-1.6-1.5-2.4-3.6-2.4-6.2c0-1.4,0.2-2.7,0.8-3.9s1.2-2.3,2.2-3.2c1-0.9,2.2-1.7,3.7-2.2 c1.4-0.5,3.1-0.8,5-0.8c2.3,0,4.4,0.3,6.2,0.8c1.9,0.5,3.3,1.2,4.4,1.9l-1.7,3.5c-0.3-0.2-0.8-0.4-1.5-0.7 c-0.6-0.2-1.4-0.5-2.2-0.7c-0.8-0.2-1.7-0.4-2.6-0.5c-0.9-0.2-1.9-0.2-2.8-0.2c-2.2,0-4,0.5-5.2,1.5c-1.2,1-1.8,2.4-1.8,4.1 c0,1.5,0.5,2.7,1.4,3.6c0.9,0.9,2.4,1.6,4.6,2.2l4.1,1.2c2.9,0.8,5.2,2,6.7,3.5c1.5,1.5,2.2,3.7,2.2,6.4c0,1.5-0.3,2.9-0.8,4.1 s-1.3,2.3-2.3,3.2c-1,0.9-2.3,1.6-3.8,2.1c-1.5,0.5-3.2,0.7-5.1,0.7c-1.7,0-3.2-0.1-4.6-0.4c-1.4-0.3-2.6-0.6-3.6-0.9 c-1-0.3-1.9-0.7-2.5-1.1c-0.7-0.4-1.1-0.6-1.4-0.8L45.2,59.4z" style="fill: rgb(0, 0, 0);"/>
    <path class="st1" d="M 97.5 65.4 L 92.1 65.4 L 83.7 51.2 L 78.5 51.2 L 78.5 65.4 L 74 65.4 L 74 30.3 L 84.2 30.3 C 86.4 30.3 88.2 30.6 89.6 31.3 C 91.1 32 92.2 32.8 93.1 33.9 C 94 35 94.6 36.1 95 37.3 C 95.4 38.5 95.5 39.7 95.5 40.8 C 95.5 43.3 94.9 45.4 93.6 47 C 92.3 48.6 90.5 49.8 88.2 50.6 L 97.5 65.4 Z M 83.81 47.191 C 86.21 47.191 88 46.7 89.2 45.6 C 90.4 44.4 91 42.9 91 40.8 C 91 38.8 90.4 37.2 89.2 36 C 88 34.8 86.3 34.2 84.1 34.2 L 78.6 34.2 L 78.6 47.2 L 83.8 47.2 L 83.81 47.191 Z" style="fill: rgb(0, 0, 0);"/>
  </g>
  <g style="" transform="matrix(5.538847, 0, 0, 5.68973, -136.858704, -157.860214)">
    <path class="st1" d="M46.2,109.9h-14V85.3h3.2V107h10.7V109.9z" style="fill: rgb(0, 0, 0);"/>
    <path class="st1" d="M51.5,88.8c-0.6,0-1.1-0.2-1.5-0.6c-0.4-0.4-0.5-0.9-0.5-1.5c0-0.6,0.2-1.1,0.5-1.5c0.4-0.4,0.9-0.6,1.5-0.6 s1.1,0.2,1.5,0.6c0.4,0.4,0.5,0.9,0.5,1.5s-0.2,1.1-0.5,1.5C52.6,88.6,52.1,88.8,51.5,88.8z M53.1,109.9H50V92.4h3.1V109.9z" style="fill: rgb(0, 0, 0);"/>
    <path class="st1" d="M73,109.9h-3.1V99.1c0-0.9-0.1-1.6-0.3-2.2c-0.2-0.6-0.4-1-0.8-1.4c-0.3-0.3-0.7-0.6-1.2-0.7s-0.9-0.2-1.4-0.2 c-0.9,0-1.7,0.2-2.3,0.5c-0.6,0.4-1.2,0.9-1.6,1.5c-0.4,0.6-0.7,1.3-0.9,2.1c-0.2,0.8-0.3,1.6-0.3,2.5v8.6h-3.1V92.4H61l0.1,2.4 c0.1-0.3,0.4-0.6,0.7-0.9c0.3-0.3,0.7-0.7,1.2-0.9c0.5-0.3,1-0.5,1.7-0.7s1.4-0.3,2.2-0.3c2,0,3.6,0.6,4.6,1.7s1.6,2.8,1.6,4.8 V109.9z" style="fill: rgb(0, 0, 0);"/>
    <path class="st1" d="M92.7,109.9h-2.9l-0.1-2.3c-0.1,0.3-0.4,0.6-0.7,0.9c-0.3,0.3-0.7,0.6-1.2,0.9c-0.5,0.3-1,0.5-1.7,0.7 c-0.6,0.2-1.4,0.3-2.2,0.3c-2,0-3.6-0.6-4.6-1.7c-1.1-1.2-1.6-2.8-1.6-4.8V92.4H81v11c0,0.8,0.1,1.5,0.3,2.1c0.2,0.5,0.4,1,0.7,1.3 c0.3,0.3,0.7,0.6,1.1,0.7c0.4,0.1,0.9,0.2,1.5,0.2c0.9,0,1.7-0.2,2.3-0.5c0.6-0.4,1.2-0.9,1.6-1.5s0.7-1.3,0.9-2.1 c0.2-0.8,0.3-1.6,0.3-2.5v-8.6h3.1V109.9z" style="fill: rgb(0, 0, 0);"/>
    <path class="st1" d="M112,109.9h-3.7l-4.6-6.7l-4.6,6.7h-3.3l6.3-9l-5.9-8.5h3.7l4,5.8l4-5.8h3.3l-5.7,8.2L112,109.9z" style="fill: rgb(0, 0, 0);"/>
  </g>
</svg>